# xmcd
#
# Track frame offsets:
#	150
#	19675
#	39161
#	53721
#	82062
#	107974
#	128860
#	147979
#	175182
#	198986
#	227492
#
# Disc length: 3374 seconds
#
# Revision: 1
# Processed by: cddbd v1.5.2PL0 Copyright (c) Steve Scherf et al.
# Submitted via: audiograbber 1.82.02
#
DISCID=8d0d2c0b
DTITLE=Robben Ford  - Truth
DYEAR=2007
DGENRE=Blues
TTITLE0=Lateral Climb
TTITLE1=How Deep In The Blues (Do You Want To Go)
TTITLE2=Nobody's Fault But Mine  
TTITLE3=Riley B. King
TTITLE4=You're Gonna Need A Friend
TTITLE5=One Man's Ceiling Is Another Man's Floor - (With Susan Tedeschi)
TTITLE6=Too Much
TTITLE7=Peace On My Mind
TTITLE8=There'll Never Be Another You
TTITLE9=River Of Soul
TTITLE10=Moonchild Blues
EXTD=Dream`Master Special
EXTT0=
EXTT1=
EXTT2=
EXTT3=
EXTT4=
EXTT5=
EXTT6=
EXTT7=
EXTT8=
EXTT9=
EXTT10=
PLAYORDER=
